<svg width="104" height="83" viewBox="0 0 104 83" fill="none" xmlns="http://www.w3.org/2000/svg">
<path d="M29.5858 39.5858C28.8047 40.3668 28.8047 41.6332 29.5858 42.4142L42.3137 55.1421C43.0948 55.9232 44.3611 55.9232 45.1421 55.1421C45.9232 54.3611 45.9232 53.0948 45.1421 52.3137L33.8284 41L45.1421 29.6863C45.9232 28.9052 45.9232 27.6389 45.1421 26.8579C44.3611 26.0768 43.0948 26.0768 42.3137 26.8579L29.5858 39.5858ZM71 39L31 39L31 43L71 43L71 39Z" fill="white" fill-opacity="0.5"/>
<path d="M104 80L0 80V86L104 86V80Z" fill="white" fill-opacity="0.5" mask="url(#path-1-inside-1_100_97)"/>
</svg>
