<svg width="130" height="44" viewBox="0 0 130 44" fill="none" xmlns="http://www.w3.org/2000/svg">
<path d="M120.5 31.3691L112.273 17.1191H128.727L120.5 31.3691Z" fill="white"/>
<path d="M4.86906 14.3131V21.066H12.2306V23.2397H4.86906V30.1955H13.1001V32.3691H2.23165V12.1394H13.1001V14.3131H4.86906ZM24.8291 16.1969C26.7613 16.1969 28.3264 16.7862 29.5243 17.9649C30.7223 19.1242 31.3212 20.8051 31.3212 23.0078V32.3691H28.7128V23.3846C28.7128 21.8002 28.3167 20.5926 27.5245 19.7618C26.7323 18.9116 25.6503 18.4865 24.2785 18.4865C22.8873 18.4865 21.7763 18.9213 20.9455 19.7907C20.134 20.6602 19.7282 21.9258 19.7282 23.5875V32.3691H17.0908V16.4867H19.7282V18.7474C20.2499 17.9359 20.9552 17.3079 21.844 16.8635C22.7521 16.4191 23.7471 16.1969 24.8291 16.1969ZM42.1795 16.2259C43.5513 16.2259 44.7492 16.5254 45.7733 17.1244C46.8167 17.7233 47.5895 18.4769 48.0919 19.385V16.4867H50.7583V32.7169C50.7583 34.1661 50.4491 35.4509 49.8308 36.5716C49.2125 37.7116 48.3237 38.6004 47.1644 39.238C46.0245 39.8756 44.6913 40.1944 43.1649 40.1944C41.0781 40.1944 39.3392 39.7017 37.948 38.7163C36.5569 37.7309 35.7357 36.388 35.4845 34.6877H38.0929C38.3828 35.6538 38.9817 36.4267 39.8898 37.0063C40.798 37.6053 41.8896 37.9048 43.1649 37.9048C44.614 37.9048 45.7926 37.4507 46.7007 36.5426C47.6282 35.6345 48.0919 34.3593 48.0919 32.7169V29.3839C47.5702 30.3114 46.7973 31.0843 45.7733 31.7025C44.7492 32.3208 43.5513 32.63 42.1795 32.63C40.769 32.63 39.4841 32.2822 38.3248 31.5866C37.1848 30.891 36.2864 29.9153 35.6294 28.6594C34.9725 27.4035 34.644 25.9737 34.644 24.37C34.644 22.747 34.9725 21.3268 35.6294 20.1096C36.2864 18.873 37.1848 17.9165 38.3248 17.2403C39.4841 16.564 40.769 16.2259 42.1795 16.2259ZM48.0919 24.399C48.0919 23.201 47.8504 22.1576 47.3673 21.2689C46.8843 20.3801 46.2273 19.7038 45.3965 19.2401C44.585 18.757 43.6865 18.5155 42.7011 18.5155C41.7157 18.5155 40.8173 18.7474 40.0058 19.2111C39.1943 19.6748 38.547 20.3511 38.0639 21.2399C37.5809 22.1287 37.3394 23.172 37.3394 24.37C37.3394 25.5872 37.5809 26.6499 38.0639 27.5581C38.547 28.4468 39.1943 29.1328 40.0058 29.6158C40.8173 30.0795 41.7157 30.3114 42.7011 30.3114C43.6865 30.3114 44.585 30.0795 45.3965 29.6158C46.2273 29.1328 46.8843 28.4468 47.3673 27.5581C47.8504 26.6499 48.0919 25.5969 48.0919 24.399ZM57.8526 10.9221V32.3691H55.2152V10.9221H57.8526ZM63.7098 13.9073C63.2075 13.9073 62.7824 13.7334 62.4346 13.3856C62.0868 13.0378 61.9129 12.6128 61.9129 12.1104C61.9129 11.608 62.0868 11.183 62.4346 10.8352C62.7824 10.4874 63.2075 10.3135 63.7098 10.3135C64.1929 10.3135 64.5986 10.4874 64.9271 10.8352C65.2749 11.183 65.4488 11.608 65.4488 12.1104C65.4488 12.6128 65.2749 13.0378 64.9271 13.3856C64.5986 13.7334 64.1929 13.9073 63.7098 13.9073ZM64.985 16.4867V32.3691H62.3476V16.4867H64.985ZM75.1026 32.63C73.8854 32.63 72.7937 32.4271 71.8276 32.0214C70.8615 31.5963 70.0983 31.0166 69.538 30.2824C68.9777 29.5289 68.6685 28.669 68.6106 27.703H71.3349C71.4122 28.4952 71.7793 29.1424 72.4363 29.6448C73.1125 30.1472 73.9916 30.3983 75.0737 30.3983C76.0784 30.3983 76.8706 30.1761 77.4502 29.7317C78.0299 29.2873 78.3197 28.727 78.3197 28.0508C78.3197 27.3552 78.0105 26.8431 77.3923 26.5147C76.774 26.1669 75.8175 25.8288 74.523 25.5003C73.3444 25.1911 72.3783 24.882 71.6247 24.5729C70.8905 24.2444 70.2529 23.771 69.7119 23.1527C69.1902 22.5151 68.9294 21.6843 68.9294 20.6602C68.9294 19.8487 69.1709 19.1048 69.6539 18.4286C70.137 17.7523 70.8229 17.221 71.7117 16.8345C72.6005 16.4288 73.6149 16.2259 74.7549 16.2259C76.5131 16.2259 77.9333 16.6703 79.0153 17.5591C80.0973 18.4479 80.6769 19.6652 80.7542 21.2109H78.1168C78.0589 20.3801 77.7207 19.7135 77.1024 19.2111C76.5035 18.7087 75.692 18.4576 74.6679 18.4576C73.7211 18.4576 72.9676 18.6604 72.4073 19.0662C71.8469 19.4719 71.5668 20.0033 71.5668 20.6602C71.5668 21.1819 71.731 21.6166 72.0595 21.9644C72.4073 22.2929 72.8323 22.5634 73.3347 22.7759C73.8564 22.9692 74.5713 23.1914 75.4794 23.4425C76.6194 23.7517 77.5468 24.0608 78.2617 24.37C78.9766 24.6598 79.5853 25.1042 80.0876 25.7032C80.6093 26.3021 80.8798 27.0847 80.8991 28.0508C80.8991 28.9202 80.6576 29.7028 80.1746 30.3983C79.6915 31.0939 79.0056 31.6446 78.1168 32.0503C77.2473 32.4368 76.2426 32.63 75.1026 32.63ZM92.5055 16.1969C93.7034 16.1969 94.7854 16.4578 95.7515 16.9794C96.7176 17.4818 97.4711 18.245 98.0122 19.2691C98.5725 20.2931 98.8526 21.5394 98.8526 23.0078V32.3691H96.2442V23.3846C96.2442 21.8002 95.8481 20.5926 95.0559 19.7618C94.2638 18.9116 93.1817 18.4865 91.8099 18.4865C90.4187 18.4865 89.3078 18.9213 88.4769 19.7907C87.6654 20.6602 87.2597 21.9258 87.2597 23.5875V32.3691H84.6223V10.9221H87.2597V18.7474C87.7813 17.9359 88.4962 17.3079 89.4044 16.8635C90.3318 16.4191 91.3655 16.1969 92.5055 16.1969Z" fill="white"/>
</svg>
