<svg width="176" height="84" viewBox="0 0 176 84" fill="none" xmlns="http://www.w3.org/2000/svg">
<path d="M125.5 51.3691L117.273 37.1191H133.727L125.5 51.3691Z" fill="white"/>
<path d="M9.86906 34.3131V41.066H17.2306V43.2397H9.86906V50.1955H18.1001V52.3691H7.23165V32.1394H18.1001V34.3131H9.86906ZM29.8291 36.1969C31.7613 36.1969 33.3264 36.7862 34.5243 37.9649C35.7223 39.1242 36.3212 40.8051 36.3212 43.0078V52.3691H33.7128V43.3846C33.7128 41.8002 33.3167 40.5926 32.5245 39.7618C31.7323 38.9116 30.6503 38.4865 29.2785 38.4865C27.8873 38.4865 26.7763 38.9213 25.9455 39.7907C25.134 40.6602 24.7282 41.9258 24.7282 43.5875V52.3691H22.0908V36.4867H24.7282V38.7474C25.2499 37.9359 25.9552 37.3079 26.844 36.8635C27.7521 36.4191 28.7471 36.1969 29.8291 36.1969ZM47.1795 36.2259C48.5513 36.2259 49.7492 36.5254 50.7733 37.1244C51.8167 37.7233 52.5895 38.4769 53.0919 39.385V36.4867H55.7583V52.7169C55.7583 54.1661 55.4491 55.4509 54.8308 56.5716C54.2125 57.7116 53.3237 58.6004 52.1644 59.238C51.0245 59.8756 49.6913 60.1944 48.1649 60.1944C46.0781 60.1944 44.3392 59.7017 42.948 58.7163C41.5569 57.7309 40.7357 56.388 40.4845 54.6877H43.0929C43.3828 55.6538 43.9817 56.4267 44.8898 57.0063C45.798 57.6053 46.8896 57.9048 48.1649 57.9048C49.614 57.9048 50.7926 57.4507 51.7007 56.5426C52.6282 55.6345 53.0919 54.3593 53.0919 52.7169V49.3839C52.5702 50.3114 51.7973 51.0843 50.7733 51.7025C49.7492 52.3208 48.5513 52.63 47.1795 52.63C45.769 52.63 44.4841 52.2822 43.3248 51.5866C42.1848 50.891 41.2864 49.9153 40.6294 48.6594C39.9725 47.4035 39.644 45.9737 39.644 44.37C39.644 42.747 39.9725 41.3268 40.6294 40.1096C41.2864 38.873 42.1848 37.9165 43.3248 37.2403C44.4841 36.564 45.769 36.2259 47.1795 36.2259ZM53.0919 44.399C53.0919 43.201 52.8504 42.1576 52.3673 41.2689C51.8843 40.3801 51.2273 39.7038 50.3965 39.2401C49.585 38.757 48.6865 38.5155 47.7011 38.5155C46.7157 38.5155 45.8173 38.7474 45.0058 39.2111C44.1943 39.6748 43.547 40.3511 43.0639 41.2399C42.5809 42.1287 42.3394 43.172 42.3394 44.37C42.3394 45.5872 42.5809 46.6499 43.0639 47.5581C43.547 48.4468 44.1943 49.1328 45.0058 49.6158C45.8173 50.0795 46.7157 50.3114 47.7011 50.3114C48.6865 50.3114 49.585 50.0795 50.3965 49.6158C51.2273 49.1328 51.8843 48.4468 52.3673 47.5581C52.8504 46.6499 53.0919 45.5969 53.0919 44.399ZM62.8526 30.9221V52.3691H60.2152V30.9221H62.8526ZM68.7098 33.9073C68.2075 33.9073 67.7824 33.7334 67.4346 33.3856C67.0868 33.0378 66.9129 32.6128 66.9129 32.1104C66.9129 31.608 67.0868 31.183 67.4346 30.8352C67.7824 30.4874 68.2075 30.3135 68.7098 30.3135C69.1929 30.3135 69.5986 30.4874 69.9271 30.8352C70.2749 31.183 70.4488 31.608 70.4488 32.1104C70.4488 32.6128 70.2749 33.0378 69.9271 33.3856C69.5986 33.7334 69.1929 33.9073 68.7098 33.9073ZM69.985 36.4867V52.3691H67.3476V36.4867H69.985ZM80.1026 52.63C78.8854 52.63 77.7937 52.4271 76.8276 52.0214C75.8615 51.5963 75.0983 51.0166 74.538 50.2824C73.9777 49.5289 73.6685 48.669 73.6106 47.703H76.3349C76.4122 48.4952 76.7793 49.1424 77.4363 49.6448C78.1125 50.1472 78.9916 50.3983 80.0737 50.3983C81.0784 50.3983 81.8706 50.1761 82.4502 49.7317C83.0299 49.2873 83.3197 48.727 83.3197 48.0508C83.3197 47.3552 83.0105 46.8431 82.3923 46.5147C81.774 46.1669 80.8175 45.8288 79.523 45.5003C78.3444 45.1911 77.3783 44.882 76.6247 44.5729C75.8905 44.2444 75.2529 43.771 74.7119 43.1527C74.1902 42.5151 73.9294 41.6843 73.9294 40.6602C73.9294 39.8487 74.1709 39.1048 74.6539 38.4286C75.137 37.7523 75.8229 37.221 76.7117 36.8345C77.6005 36.4288 78.6149 36.2259 79.7549 36.2259C81.5131 36.2259 82.9333 36.6703 84.0153 37.5591C85.0973 38.4479 85.6769 39.6652 85.7542 41.2109H83.1168C83.0589 40.3801 82.7207 39.7135 82.1024 39.2111C81.5035 38.7087 80.692 38.4576 79.6679 38.4576C78.7211 38.4576 77.9676 38.6604 77.4073 39.0662C76.8469 39.4719 76.5668 40.0033 76.5668 40.6602C76.5668 41.1819 76.731 41.6166 77.0595 41.9644C77.4073 42.2929 77.8323 42.5634 78.3347 42.7759C78.8564 42.9692 79.5713 43.1914 80.4794 43.4425C81.6194 43.7517 82.5468 44.0608 83.2617 44.37C83.9766 44.6598 84.5853 45.1042 85.0876 45.7032C85.6093 46.3021 85.8798 47.0847 85.8991 48.0508C85.8991 48.9202 85.6576 49.7028 85.1746 50.3983C84.6915 51.0939 84.0056 51.6446 83.1168 52.0503C82.2473 52.4368 81.2426 52.63 80.1026 52.63ZM97.5055 36.1969C98.7034 36.1969 99.7854 36.4578 100.752 36.9794C101.718 37.4818 102.471 38.245 103.012 39.2691C103.572 40.2931 103.853 41.5394 103.853 43.0078V52.3691H101.244V43.3846C101.244 41.8002 100.848 40.5926 100.056 39.7618C99.2638 38.9116 98.1817 38.4865 96.8099 38.4865C95.4187 38.4865 94.3078 38.9213 93.4769 39.7907C92.6654 40.6602 92.2597 41.9258 92.2597 43.5875V52.3691H89.6223V30.9221H92.2597V38.7474C92.7813 37.9359 93.4962 37.3079 94.4044 36.8635C95.3318 36.4191 96.3655 36.1969 97.5055 36.1969Z" fill="white"/>
<path d="M175.738 80.7381H0V86.7381H175.738V80.7381Z" fill="white" mask="url(#path-1-inside-1_99_42)"/>
</svg>
